<?xml version="1.0" standalone="no"?>
<svg viewBox="0 0 200 200" xmlns="http://www.w3.org/2000/svg">
  <path fill="#998FC7" d="M47.7,-67.5C59.7,-66.5,65.8,-49.7,71.7,-33.7C77.5,-17.7,83,-2.5,76.1,7.4C69.1,17.3,49.7,21.8,36.6,25.3C23.6,28.8,16.7,31.3,8.5,37.7C0.3,44.1,-9.4,54.4,-23.5,59.6C-37.7,64.8,-56.3,64.9,-61.4,55.3C-66.5,45.7,-58,26.4,-54.2,11.6C-50.4,-3.2,-51.3,-13.5,-47.1,-21.1C-43,-28.6,-33.7,-33.3,-25,-35.8C-16.3,-38.2,-8.2,-38.4,4.9,-45.9C17.9,-53.5,35.7,-68.4,47.7,-67.5Z" transform="translate(100 100)" />
</svg>
