<?xml version="1.0" standalone="no"?>
<svg viewBox="0 0 200 200" xmlns="http://www.w3.org/2000/svg">
  <path fill="#998FC7" d="M33.7,-43.7C48.5,-43,68.5,-41.7,78.6,-32.2C88.6,-22.7,88.7,-5,78.2,5.4C67.6,15.9,46.6,19,35.9,31C25.3,43,25.1,63.9,18.1,69.8C11,75.6,-2.9,66.4,-12.5,57C-22,47.5,-27.3,37.9,-36.5,30.1C-45.6,22.2,-58.6,16.3,-64.2,6.6C-69.7,-3.2,-67.8,-16.6,-56.3,-19.1C-44.9,-21.6,-23.9,-13.1,-13,-15.5C-2,-17.9,-1,-31.2,4.2,-37.8C9.5,-44.4,19,-44.4,33.7,-43.7Z" transform="translate(100 100)" />
</svg>
